<svg width="168" height="68" viewBox="0 0 168 68" fill="none" xmlns="http://www.w3.org/2000/svg">
<rect width="168" height="68" rx="12" fill="url(#paint0_linear_165_191)"/>
<path d="M61 33.5C61 37.1114 60.2887 40.6873 58.9067 44.0238C57.5247 47.3602 55.499 50.3918 52.9454 52.9454C50.3918 55.499 47.3602 57.5247 44.0238 58.9067C40.6873 60.2887 37.1114 61 33.5 61C29.8886 61 26.3127 60.2887 22.9762 58.9067C19.6398 57.5247 16.6082 55.499 14.0546 52.9454C11.501 50.3918 9.47532 47.3602 8.09331 44.0238C6.71131 40.6873 6 37.1113 6 33.5L33.5 33.5H61Z" fill="#3D495B"/>
<path d="M27.3333 17H38.6667V49H27.3333V17Z" fill="#7C8FAD"/>
<path d="M50 27.6667V38.3333H16V27.6667H50Z" fill="#7C8FAD"/>
<path d="M67.4027 55.8765H66V55.6229H66.5443V51.5787H66V51.3251H67.4027V51.5787H66.8305V55.6229H67.4027V55.8765Z" fill="#3D495B"/>
<path d="M69.2415 55.8765H67.8946V55.6229H68.439V53.6918H67.9365V53.4382H68.6693L68.6763 53.6723C68.6809 53.746 68.6856 53.8132 68.6902 53.8739C68.6949 53.9302 68.6995 53.9952 68.7042 54.0689C68.7972 53.8652 68.9461 53.7005 69.1508 53.5748C69.3555 53.4491 69.5881 53.3862 69.8487 53.3862C70.1046 53.3862 70.307 53.4534 70.4558 53.5878C70.6047 53.7222 70.6838 53.8977 70.6931 54.1144V55.6229H71.2095V55.8765H69.8626V55.6229H70.407V54.186C70.3977 54.0429 70.3419 53.9215 70.2395 53.8218C70.1418 53.7178 69.9952 53.6615 69.7998 53.6528C69.6556 53.6528 69.5184 53.6745 69.3881 53.7178C69.2578 53.7612 69.1462 53.8218 69.0531 53.8999C68.9507 53.9822 68.8693 54.0776 68.8088 54.186C68.753 54.2943 68.7251 54.4135 68.7251 54.5436V55.6229H69.2415V55.8765Z" fill="#3D495B"/>
<path d="M73.2957 55.6684C73.2259 55.7464 73.1351 55.8093 73.0235 55.857C72.9165 55.9046 72.7839 55.9285 72.6257 55.9285C72.4768 55.9285 72.3303 55.9111 72.186 55.8765C72.0465 55.8461 71.9232 55.7833 71.8162 55.6879V55.2133H72.0744V55.5449C72.1628 55.5969 72.2535 55.6316 72.3465 55.6489C72.4396 55.6619 72.5373 55.6684 72.6396 55.6684C72.7094 55.6684 72.7769 55.6597 72.842 55.6424C72.9072 55.6207 72.9676 55.5904 73.0235 55.5514C73.0747 55.5124 73.1142 55.4668 73.1421 55.4148C73.1747 55.3585 73.191 55.2913 73.191 55.2133C73.191 55.1006 73.1607 55.0139 73.1002 54.9532C73.0398 54.8925 72.9607 54.8448 72.863 54.8101C72.7699 54.7711 72.6676 54.7365 72.5559 54.7061C72.4442 54.6758 72.3396 54.6389 72.2419 54.5956C72.1442 54.5522 72.0627 54.4915 71.9976 54.4135C71.9371 54.3312 71.9069 54.2185 71.9069 54.0754C71.9069 53.9584 71.9278 53.8587 71.9697 53.7763C72.0162 53.694 72.0767 53.6246 72.1511 53.5683C72.2256 53.5119 72.3116 53.4707 72.4093 53.4447C72.5071 53.4144 72.5978 53.3992 72.6815 53.3992C72.742 53.3992 72.8002 53.4036 72.856 53.4122C72.9118 53.4166 72.977 53.4296 73.0514 53.4512C73.1119 53.4729 73.17 53.4989 73.2259 53.5293C73.2817 53.5553 73.3329 53.5878 73.3794 53.6268V54.1014H73.1142V53.7633C73.0491 53.7287 72.9816 53.7026 72.9118 53.6853C72.842 53.668 72.7676 53.6593 72.6885 53.6593C72.628 53.6593 72.5652 53.668 72.5001 53.6853C72.4396 53.6983 72.3861 53.72 72.3396 53.7503C72.2977 53.785 72.2628 53.8283 72.2349 53.8804C72.207 53.9324 72.193 53.9952 72.193 54.0689C72.193 54.1643 72.2256 54.2401 72.2907 54.2965C72.3605 54.3485 72.4419 54.3919 72.535 54.4265C72.6327 54.4655 72.735 54.5024 72.842 54.5371C72.9537 54.5674 73.0584 54.6086 73.1561 54.6606C73.2491 54.7126 73.3259 54.7798 73.3864 54.8622C73.4515 54.9445 73.4841 55.055 73.4841 55.1938C73.4841 55.2718 73.4678 55.3541 73.4352 55.4408C73.4073 55.5232 73.3608 55.599 73.2957 55.6684Z" fill="#3D495B"/>
<path d="M75.4121 55.8765H74.5537V53.6983H73.9465V53.4382H74.5537V51.8518H74.8398V53.4382H75.6494V53.6983H74.8398V55.6229H75.4121V55.8765Z" fill="#3D495B"/>
<path d="M77.4879 55.8765H76.141V55.6229H76.6784V53.6918H76.141V53.4382H76.9645V55.6229H77.4879V55.8765ZM77.0552 52.5735C77.0552 52.6342 77.032 52.6862 76.9855 52.7295C76.9389 52.7685 76.8854 52.788 76.8249 52.788C76.7691 52.788 76.7179 52.7685 76.6714 52.7295C76.6249 52.6862 76.6016 52.6342 76.6016 52.5735C76.6016 52.5128 76.6249 52.4629 76.6714 52.4239C76.7179 52.3806 76.7691 52.3589 76.8249 52.3589C76.8854 52.3589 76.9389 52.3806 76.9855 52.4239C77.032 52.4629 77.0552 52.5128 77.0552 52.5735Z" fill="#3D495B"/>
<path d="M79.4399 55.8765H78.5815V53.6983H77.9743V53.4382H78.5815V51.8518H78.8676V53.4382H79.6771V53.6983H78.8676V55.6229H79.4399V55.8765Z" fill="#3D495B"/>
<path d="M82.6742 55.2458C82.5811 55.4538 82.4299 55.6207 82.2206 55.7464C82.0159 55.8678 81.7856 55.9285 81.5297 55.9285C81.2738 55.9285 81.0714 55.8613 80.9225 55.7269C80.7736 55.5925 80.6946 55.417 80.6852 55.2003V53.6918H80.1688V53.4382H80.9714V55.1287C80.9807 55.2718 81.0342 55.3953 81.1319 55.4993C81.2342 55.599 81.3831 55.6532 81.5785 55.6619C81.7228 55.6619 81.8577 55.6402 81.9833 55.5969C82.1136 55.5535 82.2299 55.4907 82.3322 55.4083C82.4299 55.3346 82.5067 55.2436 82.5625 55.1352C82.623 55.0225 82.6533 54.9012 82.6533 54.7711V53.6918H82.1368V53.4382H82.9394V55.6424H83.4349V55.8765H82.6882L82.6742 55.5384V55.2458Z" fill="#3D495B"/>
<path d="M85.3895 55.8765H84.5311V53.6983H83.924V53.4382H84.5311V51.8518H84.8173V53.4382H85.6268V53.6983H84.8173V55.6229H85.3895V55.8765Z" fill="#3D495B"/>
<path d="M88.4773 55.5514C88.3517 55.6684 88.2028 55.7594 88.0307 55.8244C87.8632 55.8895 87.6841 55.922 87.4933 55.922C87.2979 55.922 87.1165 55.8895 86.949 55.8244C86.7861 55.7594 86.6442 55.6684 86.5233 55.5514C86.3976 55.4387 86.2999 55.3065 86.2302 55.1547C86.1604 54.9987 86.1255 54.8318 86.1255 54.6541C86.1255 54.4807 86.1604 54.316 86.2302 54.1599C86.2999 54.0039 86.3976 53.8674 86.5233 53.7503C86.6442 53.6376 86.7885 53.5488 86.9559 53.4837C87.1234 53.4144 87.3026 53.3797 87.4933 53.3797C87.6841 53.3797 87.8632 53.4144 88.0307 53.4837C88.2028 53.5488 88.3517 53.6376 88.4773 53.7503C88.5983 53.8674 88.6937 54.0039 88.7634 54.1599C88.8379 54.316 88.8751 54.4807 88.8751 54.6541C88.8751 54.8318 88.8379 54.9965 88.7634 55.1482C88.6937 55.3 88.5983 55.4343 88.4773 55.5514ZM86.7256 55.3628C86.8233 55.4582 86.9373 55.5319 87.0676 55.5839C87.1979 55.6359 87.3375 55.6619 87.4863 55.6619C87.6352 55.6619 87.7748 55.6359 87.9051 55.5839C88.04 55.5319 88.1563 55.4582 88.254 55.3628C88.3564 55.2761 88.4354 55.1721 88.4913 55.0507C88.5471 54.9293 88.575 54.7971 88.575 54.6541C88.575 54.5197 88.5471 54.3919 88.4913 54.2705C88.4354 54.1448 88.3564 54.0342 88.254 53.9389C88.1563 53.8479 88.04 53.7763 87.9051 53.7243C87.7748 53.6723 87.6352 53.6463 87.4863 53.6463C87.3375 53.6463 87.1979 53.6723 87.0676 53.7243C86.9373 53.7763 86.8233 53.8479 86.7256 53.9389C86.6279 54.0342 86.5512 54.1426 86.4953 54.264C86.4395 54.3853 86.4116 54.5154 86.4116 54.6541C86.4116 54.7971 86.4395 54.9293 86.4953 55.0507C86.5512 55.1721 86.6279 55.2761 86.7256 55.3628Z" fill="#3D495B"/>
<path d="M93.1227 55.8765H91.4548V55.6229H91.8805V51.5787H91.4548V51.3251H92.9971C93.2111 51.3251 93.4089 51.3468 93.5903 51.3901C93.7718 51.4335 93.9253 51.5007 94.0509 51.5917C94.1812 51.6827 94.2812 51.8019 94.351 51.9493C94.4208 52.0923 94.4557 52.2635 94.4557 52.4629C94.4557 52.7317 94.3836 52.9679 94.2393 53.1717C94.0998 53.3754 93.8834 53.5141 93.5903 53.5878C93.7252 53.6138 93.8555 53.6571 93.9811 53.7178C94.1114 53.7785 94.2254 53.8565 94.3231 53.9519C94.4208 54.0472 94.4975 54.1578 94.5534 54.2835C94.6092 54.4092 94.6371 54.5501 94.6371 54.7061C94.6371 54.9012 94.5929 55.0724 94.5045 55.2198C94.4208 55.3628 94.3114 55.482 94.1765 55.5774C94.0323 55.6771 93.8671 55.7529 93.681 55.8049C93.4996 55.8526 93.3135 55.8765 93.1227 55.8765ZM92.1666 53.7178V55.6229H93.0948C93.267 55.6229 93.4275 55.6034 93.5763 55.5644C93.7299 55.5254 93.8648 55.4647 93.9811 55.3823C94.0928 55.3086 94.1812 55.2133 94.2463 55.0962C94.3161 54.9792 94.351 54.8427 94.351 54.6866C94.351 54.5176 94.3114 54.3723 94.2324 54.251C94.1579 54.1253 94.0579 54.0256 93.9323 53.9519C93.802 53.8739 93.6531 53.8153 93.4856 53.7763C93.3228 53.7373 93.153 53.7178 92.9762 53.7178H92.1666ZM92.1666 51.5787V53.4642H93.0878C93.4228 53.4642 93.6857 53.3754 93.8764 53.1977C94.0718 53.0156 94.1695 52.7772 94.1695 52.4824C94.1695 52.3221 94.1416 52.1834 94.0858 52.0663C94.03 51.9493 93.9509 51.8561 93.8485 51.7867C93.7508 51.7174 93.6345 51.6654 93.4996 51.6307C93.3693 51.596 93.2228 51.5787 93.0599 51.5787H92.1666Z" fill="#3D495B"/>
<path d="M98.3943 55.8765H97.6196V55.6099C97.6196 55.5579 97.6196 55.5102 97.6196 55.4668C97.6196 55.4192 97.6196 55.3671 97.6196 55.3108C97.5871 55.3888 97.5359 55.4647 97.4661 55.5384C97.401 55.6077 97.3219 55.6706 97.2288 55.7269C97.1311 55.7876 97.0194 55.8353 96.8938 55.87C96.7729 55.9046 96.6426 55.922 96.503 55.922C96.3076 55.922 96.1262 55.8895 95.9587 55.8244C95.7958 55.7594 95.6516 55.6684 95.526 55.5514C95.4004 55.4343 95.3027 55.3 95.2329 55.1482C95.1631 54.9965 95.1282 54.8318 95.1282 54.6541C95.1282 54.485 95.1631 54.3225 95.2329 54.1665C95.3027 54.0104 95.4004 53.8739 95.526 53.7568C95.6516 53.6441 95.7958 53.5553 95.9587 53.4902C96.1262 53.4209 96.3076 53.3862 96.503 53.3862C96.7775 53.3862 97.0125 53.4491 97.2079 53.5748C97.4033 53.6961 97.5405 53.8414 97.6196 54.0104C97.6196 53.9194 97.6219 53.8262 97.6266 53.7308C97.6313 53.6311 97.6382 53.5336 97.6475 53.4382H97.8778V55.6229H98.3943V55.8765ZM96.503 53.6463C96.3448 53.6463 96.1983 53.6723 96.0634 53.7243C95.9284 53.7763 95.8144 53.85 95.7214 53.9454C95.6237 54.0364 95.5469 54.1426 95.4911 54.264C95.4399 54.3853 95.4143 54.5154 95.4143 54.6541C95.4143 54.8015 95.4446 54.938 95.505 55.0637C95.5655 55.1894 95.6493 55.2978 95.7563 55.3888C95.854 55.4755 95.9656 55.5427 96.0913 55.5904C96.2169 55.6381 96.3541 55.6619 96.503 55.6619C96.6519 55.6619 96.7915 55.6381 96.9217 55.5904C97.052 55.5384 97.166 55.4668 97.2637 55.3758C97.3661 55.2848 97.4451 55.1786 97.501 55.0572C97.5615 54.9315 97.5917 54.7971 97.5917 54.6541C97.5917 54.5111 97.5615 54.3788 97.501 54.2575C97.4451 54.1318 97.3684 54.0234 97.2707 53.9324C97.1683 53.8414 97.052 53.772 96.9217 53.7243C96.7915 53.6723 96.6519 53.6463 96.503 53.6463Z" fill="#3D495B"/>
<path d="M100.23 55.8765H98.8834V55.6229H99.4277V53.6918H98.9252V53.4382H99.658L99.679 53.7828C99.6836 53.8565 99.6859 53.9042 99.6859 53.9259C99.6859 53.9476 99.6883 53.9952 99.6929 54.0689C99.7441 53.9606 99.8092 53.8652 99.8883 53.7828C99.9721 53.6961 100.065 53.6246 100.167 53.5683C100.265 53.5119 100.365 53.4686 100.468 53.4382C100.575 53.4079 100.682 53.3906 100.789 53.3862L100.775 53.6853C100.635 53.6896 100.502 53.7113 100.377 53.7503C100.256 53.7893 100.149 53.8457 100.056 53.9194C99.9488 53.9974 99.8651 54.0928 99.8046 54.2055C99.7441 54.3182 99.7139 54.4417 99.7139 54.5761V55.6229H100.23V55.8765Z" fill="#3D495B"/>
<path d="M101.276 55.8765V55.6229H101.792V51.2536H101.303V51H102.078V53.6853C102.078 53.7503 102.078 53.8023 102.078 53.8414C102.078 53.876 102.076 53.9259 102.071 53.9909C102.099 53.9172 102.146 53.8457 102.211 53.7763C102.276 53.7026 102.357 53.6355 102.455 53.5748C102.553 53.5184 102.662 53.4729 102.783 53.4382C102.904 53.4036 103.032 53.3862 103.167 53.3862C103.358 53.3862 103.537 53.4209 103.704 53.4902C103.872 53.5553 104.018 53.6441 104.144 53.7568C104.265 53.8695 104.36 54.0039 104.43 54.1599C104.504 54.316 104.542 54.4807 104.542 54.6541C104.542 54.8318 104.504 54.9965 104.43 55.1482C104.36 55.3 104.265 55.4343 104.144 55.5514C104.018 55.6684 103.872 55.7594 103.704 55.8244C103.537 55.8895 103.358 55.922 103.167 55.922C103.027 55.922 102.895 55.9046 102.769 55.87C102.648 55.8353 102.541 55.7876 102.448 55.7269C102.35 55.6706 102.266 55.6077 102.197 55.5384C102.127 55.4647 102.078 55.3888 102.05 55.3108C102.05 55.3671 102.05 55.4192 102.05 55.4668C102.05 55.5102 102.05 55.5579 102.05 55.6099V55.8765H101.276ZM103.167 53.6463C103.009 53.6463 102.862 53.6723 102.727 53.7243C102.597 53.7763 102.483 53.85 102.385 53.9454C102.287 54.0364 102.211 54.1426 102.155 54.264C102.104 54.3853 102.078 54.5154 102.078 54.6541C102.078 54.7971 102.106 54.9315 102.162 55.0572C102.222 55.1786 102.304 55.2848 102.406 55.3758C102.504 55.4668 102.618 55.5384 102.748 55.5904C102.878 55.6381 103.018 55.6619 103.167 55.6619C103.32 55.6619 103.462 55.6359 103.592 55.5839C103.723 55.5319 103.839 55.4603 103.941 55.3693C104.034 55.2783 104.109 55.1721 104.165 55.0507C104.221 54.9293 104.248 54.7971 104.248 54.6541C104.248 54.5111 104.221 54.3767 104.165 54.251C104.109 54.1253 104.03 54.0169 103.927 53.9259C103.83 53.8392 103.716 53.772 103.585 53.7243C103.455 53.6723 103.316 53.6463 103.167 53.6463Z" fill="#3D495B"/>
<path d="M108.297 55.8765H107.522V55.6099C107.522 55.5579 107.522 55.5102 107.522 55.4668C107.522 55.4192 107.522 55.3671 107.522 55.3108C107.49 55.3888 107.438 55.4647 107.369 55.5384C107.303 55.6077 107.224 55.6706 107.131 55.7269C107.034 55.7876 106.922 55.8353 106.796 55.87C106.675 55.9046 106.545 55.922 106.406 55.922C106.21 55.922 106.029 55.8895 105.861 55.8244C105.698 55.7594 105.554 55.6684 105.428 55.5514C105.303 55.4343 105.205 55.3 105.135 55.1482C105.066 54.9965 105.031 54.8318 105.031 54.6541C105.031 54.485 105.066 54.3225 105.135 54.1665C105.205 54.0104 105.303 53.8739 105.428 53.7568C105.554 53.6441 105.698 53.5553 105.861 53.4902C106.029 53.4209 106.21 53.3862 106.406 53.3862C106.68 53.3862 106.915 53.4491 107.11 53.5748C107.306 53.6961 107.443 53.8414 107.522 54.0104C107.522 53.9194 107.524 53.8262 107.529 53.7308C107.534 53.6311 107.541 53.5336 107.55 53.4382H107.78V55.6229H108.297V55.8765ZM106.406 53.6463C106.247 53.6463 106.101 53.6723 105.966 53.7243C105.831 53.7763 105.717 53.85 105.624 53.9454C105.526 54.0364 105.449 54.1426 105.394 54.264C105.342 54.3853 105.317 54.5154 105.317 54.6541C105.317 54.8015 105.347 54.938 105.408 55.0637C105.468 55.1894 105.552 55.2978 105.659 55.3888C105.756 55.4755 105.868 55.5427 105.994 55.5904C106.119 55.6381 106.257 55.6619 106.406 55.6619C106.554 55.6619 106.694 55.6381 106.824 55.5904C106.955 55.5384 107.068 55.4668 107.166 55.3758C107.269 55.2848 107.348 55.1786 107.403 55.0572C107.464 54.9315 107.494 54.7971 107.494 54.6541C107.494 54.5111 107.464 54.3788 107.403 54.2575C107.348 54.1318 107.271 54.0234 107.173 53.9324C107.071 53.8414 106.955 53.772 106.824 53.7243C106.694 53.6723 106.554 53.6463 106.406 53.6463Z" fill="#3D495B"/>
<path d="M110.133 55.8765H108.786V55.6229H109.33V53.6918H108.828V53.4382H109.561L109.581 53.7828C109.586 53.8565 109.588 53.9042 109.588 53.9259C109.588 53.9476 109.591 53.9952 109.595 54.0689C109.647 53.9606 109.712 53.8652 109.791 53.7828C109.875 53.6961 109.968 53.6246 110.07 53.5683C110.168 53.5119 110.268 53.4686 110.37 53.4382C110.477 53.4079 110.584 53.3906 110.691 53.3862L110.677 53.6853C110.538 53.6896 110.405 53.7113 110.279 53.7503C110.158 53.7893 110.051 53.8457 109.958 53.9194C109.851 53.9974 109.768 54.0928 109.707 54.2055C109.647 54.3182 109.616 54.4417 109.616 54.5761V55.6229H110.133V55.8765Z" fill="#3D495B"/>
<path d="M113.455 55.5514C113.329 55.6684 113.181 55.7594 113.008 55.8244C112.841 55.8895 112.662 55.922 112.471 55.922C112.276 55.922 112.094 55.8895 111.927 55.8244C111.764 55.7594 111.622 55.6684 111.501 55.5514C111.375 55.4387 111.278 55.3065 111.208 55.1547C111.138 54.9987 111.103 54.8318 111.103 54.6541C111.103 54.4807 111.138 54.316 111.208 54.1599C111.278 54.0039 111.375 53.8674 111.501 53.7503C111.622 53.6376 111.766 53.5488 111.934 53.4837C112.101 53.4144 112.28 53.3797 112.471 53.3797C112.662 53.3797 112.841 53.4144 113.008 53.4837C113.181 53.5488 113.329 53.6376 113.455 53.7503C113.576 53.8674 113.671 54.0039 113.741 54.1599C113.816 54.316 113.853 54.4807 113.853 54.6541C113.853 54.8318 113.816 54.9965 113.741 55.1482C113.671 55.3 113.576 55.4343 113.455 55.5514ZM111.703 55.3628C111.801 55.4582 111.915 55.5319 112.045 55.5839C112.176 55.6359 112.315 55.6619 112.464 55.6619C112.613 55.6619 112.753 55.6359 112.883 55.5839C113.018 55.5319 113.134 55.4582 113.232 55.3628C113.334 55.2761 113.413 55.1721 113.469 55.0507C113.525 54.9293 113.553 54.7971 113.553 54.6541C113.553 54.5197 113.525 54.3919 113.469 54.2705C113.413 54.1448 113.334 54.0342 113.232 53.9389C113.134 53.8479 113.018 53.7763 112.883 53.7243C112.753 53.6723 112.613 53.6463 112.464 53.6463C112.315 53.6463 112.176 53.6723 112.045 53.7243C111.915 53.7763 111.801 53.8479 111.703 53.9389C111.606 54.0342 111.529 54.1426 111.473 54.264C111.417 54.3853 111.389 54.5154 111.389 54.6541C111.389 54.7971 111.417 54.9293 111.473 55.0507C111.529 55.1721 111.606 55.2761 111.703 55.3628Z" fill="#3D495B"/>
<path d="M115.938 55.6684C115.869 55.7464 115.778 55.8093 115.666 55.857C115.559 55.9046 115.427 55.9285 115.268 55.9285C115.12 55.9285 114.973 55.9111 114.829 55.8765C114.689 55.8461 114.566 55.7833 114.459 55.6879V55.2133H114.717V55.5449C114.806 55.5969 114.896 55.6316 114.989 55.6489C115.082 55.6619 115.18 55.6684 115.282 55.6684C115.352 55.6684 115.42 55.6597 115.485 55.6424C115.55 55.6207 115.61 55.5904 115.666 55.5514C115.717 55.5124 115.757 55.4668 115.785 55.4148C115.817 55.3585 115.834 55.2913 115.834 55.2133C115.834 55.1006 115.803 55.0139 115.743 54.9532C115.683 54.8925 115.603 54.8448 115.506 54.8101C115.413 54.7711 115.31 54.7365 115.199 54.7061C115.087 54.6758 114.982 54.6389 114.885 54.5956C114.787 54.5522 114.705 54.4915 114.64 54.4135C114.58 54.3312 114.55 54.2185 114.55 54.0754C114.55 53.9584 114.571 53.8587 114.612 53.7763C114.659 53.694 114.719 53.6246 114.794 53.5683C114.868 53.5119 114.954 53.4707 115.052 53.4447C115.15 53.4144 115.241 53.3992 115.324 53.3992C115.385 53.3992 115.443 53.4036 115.499 53.4122C115.555 53.4166 115.62 53.4296 115.694 53.4512C115.755 53.4729 115.813 53.4989 115.869 53.5293C115.924 53.5553 115.976 53.5878 116.022 53.6268V54.1014H115.757V53.7633C115.692 53.7287 115.624 53.7026 115.555 53.6853C115.485 53.668 115.41 53.6593 115.331 53.6593C115.271 53.6593 115.208 53.668 115.143 53.6853C115.082 53.6983 115.029 53.72 114.982 53.7503C114.94 53.785 114.906 53.8283 114.878 53.8804C114.85 53.9324 114.836 53.9952 114.836 54.0689C114.836 54.1643 114.868 54.2401 114.933 54.2965C115.003 54.3485 115.085 54.3919 115.178 54.4265C115.275 54.4655 115.378 54.5024 115.485 54.5371C115.596 54.5674 115.701 54.6086 115.799 54.6606C115.892 54.7126 115.969 54.7798 116.029 54.8622C116.094 54.9445 116.127 55.055 116.127 55.1938C116.127 55.2718 116.111 55.3541 116.078 55.4408C116.05 55.5232 116.004 55.599 115.938 55.6684Z" fill="#3D495B"/>
<path d="M118.187 55.6684C118.118 55.7464 118.027 55.8093 117.915 55.857C117.808 55.9046 117.676 55.9285 117.517 55.9285C117.369 55.9285 117.222 55.9111 117.078 55.8765C116.938 55.8461 116.815 55.7833 116.708 55.6879V55.2133H116.966V55.5449C117.055 55.5969 117.145 55.6316 117.238 55.6489C117.331 55.6619 117.429 55.6684 117.531 55.6684C117.601 55.6684 117.669 55.6597 117.734 55.6424C117.799 55.6207 117.859 55.5904 117.915 55.5514C117.966 55.5124 118.006 55.4668 118.034 55.4148C118.066 55.3585 118.083 55.2913 118.083 55.2133C118.083 55.1006 118.053 55.0139 117.992 54.9532C117.932 54.8925 117.852 54.8448 117.755 54.8101C117.662 54.7711 117.559 54.7365 117.448 54.7061C117.336 54.6758 117.231 54.6389 117.134 54.5956C117.036 54.5522 116.955 54.4915 116.889 54.4135C116.829 54.3312 116.799 54.2185 116.799 54.0754C116.799 53.9584 116.82 53.8587 116.861 53.7763C116.908 53.694 116.968 53.6246 117.043 53.5683C117.117 53.5119 117.203 53.4707 117.301 53.4447C117.399 53.4144 117.49 53.3992 117.573 53.3992C117.634 53.3992 117.692 53.4036 117.748 53.4122C117.804 53.4166 117.869 53.4296 117.943 53.4512C118.004 53.4729 118.062 53.4989 118.118 53.5293C118.173 53.5553 118.225 53.5878 118.271 53.6268V54.1014H118.006V53.7633C117.941 53.7287 117.873 53.7026 117.804 53.6853C117.734 53.668 117.659 53.6593 117.58 53.6593C117.52 53.6593 117.457 53.668 117.392 53.6853C117.331 53.6983 117.278 53.72 117.231 53.7503C117.189 53.785 117.155 53.8283 117.127 53.8804C117.099 53.9324 117.085 53.9952 117.085 54.0689C117.085 54.1643 117.117 54.2401 117.182 54.2965C117.252 54.3485 117.334 54.3919 117.427 54.4265C117.524 54.4655 117.627 54.5024 117.734 54.5371C117.845 54.5674 117.95 54.6086 118.048 54.6606C118.141 54.7126 118.218 54.7798 118.278 54.8622C118.343 54.9445 118.376 55.055 118.376 55.1938C118.376 55.2718 118.36 55.3541 118.327 55.4408C118.299 55.5232 118.253 55.599 118.187 55.6684Z" fill="#3D495B"/>
<path d="M122.138 55.8765H121.364V55.6099C121.364 55.5579 121.364 55.5102 121.364 55.4668C121.364 55.4192 121.364 55.3671 121.364 55.3108C121.331 55.3888 121.28 55.4647 121.21 55.5384C121.145 55.6077 121.066 55.6706 120.973 55.7269C120.875 55.7876 120.764 55.8353 120.638 55.87C120.517 55.9046 120.387 55.922 120.247 55.922C120.052 55.922 119.87 55.8895 119.703 55.8244C119.54 55.7594 119.396 55.6684 119.27 55.5514C119.145 55.4343 119.047 55.3 118.977 55.1482C118.907 54.9965 118.872 54.8318 118.872 54.6541C118.872 54.485 118.907 54.3225 118.977 54.1665C119.047 54.0104 119.145 53.8739 119.27 53.7568C119.396 53.6441 119.54 53.5553 119.703 53.4902C119.87 53.4209 120.052 53.3862 120.247 53.3862C120.522 53.3862 120.757 53.4491 120.952 53.5748C121.147 53.6961 121.285 53.8414 121.364 54.0104C121.364 53.9194 121.366 53.8262 121.371 53.7308C121.375 53.6311 121.382 53.5336 121.392 53.4382H121.622V55.6229H122.138V55.8765ZM120.247 53.6463C120.089 53.6463 119.942 53.6723 119.808 53.7243C119.673 53.7763 119.559 53.85 119.466 53.9454C119.368 54.0364 119.291 54.1426 119.235 54.264C119.184 54.3853 119.159 54.5154 119.159 54.6541C119.159 54.8015 119.189 54.938 119.249 55.0637C119.31 55.1894 119.393 55.2978 119.5 55.3888C119.598 55.4755 119.71 55.5427 119.835 55.5904C119.961 55.6381 120.098 55.6619 120.247 55.6619C120.396 55.6619 120.536 55.6381 120.666 55.5904C120.796 55.5384 120.91 55.4668 121.008 55.3758C121.11 55.2848 121.189 55.1786 121.245 55.0572C121.306 54.9315 121.336 54.7971 121.336 54.6541C121.336 54.5111 121.306 54.3788 121.245 54.2575C121.189 54.1318 121.113 54.0234 121.015 53.9324C120.913 53.8414 120.796 53.772 120.666 53.7243C120.536 53.6723 120.396 53.6463 120.247 53.6463Z" fill="#3D495B"/>
<path d="M126.583 55.9285C126.392 55.9285 126.213 55.896 126.046 55.8309C125.878 55.7616 125.734 55.6684 125.613 55.5514C125.487 55.4387 125.39 55.3065 125.32 55.1547C125.25 55.003 125.215 54.8383 125.215 54.6606C125.215 54.5046 125.243 54.3572 125.299 54.2185C125.355 54.0754 125.434 53.9476 125.536 53.8349C125.639 53.7265 125.757 53.6355 125.892 53.5618C126.032 53.4881 126.183 53.4382 126.346 53.4122L125.85 52.6515C125.771 52.5301 125.713 52.4066 125.676 52.2809C125.643 52.1508 125.634 52.0251 125.648 51.9038C125.662 51.7781 125.704 51.6589 125.774 51.5462C125.843 51.4291 125.943 51.3229 126.074 51.2276C126.19 51.1452 126.316 51.0889 126.451 51.0585C126.585 51.0238 126.727 51.013 126.876 51.026C127.025 51.039 127.165 51.0715 127.295 51.1235C127.43 51.1756 127.546 51.2297 127.644 51.2861L127.525 51.5072C127.437 51.4595 127.335 51.4118 127.218 51.3641C127.107 51.3164 126.995 51.2861 126.883 51.2731C126.772 51.2601 126.665 51.2666 126.562 51.2926C126.465 51.3143 126.371 51.3576 126.283 51.4226C126.176 51.5007 126.095 51.5852 126.039 51.6762C125.983 51.7672 125.948 51.8583 125.934 51.9493C125.92 52.0533 125.927 52.1595 125.955 52.2679C125.988 52.3719 126.036 52.4738 126.102 52.5735L127.567 54.7971C127.6 54.7235 127.625 54.6498 127.644 54.5761C127.663 54.5024 127.672 54.4244 127.672 54.342V53.4382H128.67V53.6983H127.958V54.2445C127.958 54.3225 127.958 54.3984 127.958 54.472C127.963 54.5457 127.963 54.6194 127.958 54.6931C127.949 54.7755 127.932 54.8578 127.909 54.9402C127.891 55.0182 127.863 55.0962 127.825 55.1743L128.279 55.857L128.056 56L127.679 55.4343C127.553 55.5817 127.395 55.7009 127.204 55.7919C127.018 55.883 126.811 55.9285 126.583 55.9285ZM126.583 55.6684C126.783 55.6684 126.965 55.6251 127.128 55.5384C127.29 55.4473 127.418 55.3281 127.511 55.1808L126.506 53.6593C126.362 53.668 126.227 53.7005 126.102 53.7568C125.976 53.8132 125.867 53.8847 125.774 53.9714C125.685 54.0624 125.618 54.1664 125.571 54.2835C125.525 54.4005 125.501 54.5262 125.501 54.6606C125.501 54.8036 125.529 54.9358 125.585 55.0572C125.641 55.1786 125.718 55.2848 125.815 55.3758C125.913 55.4668 126.027 55.5384 126.157 55.5904C126.288 55.6424 126.43 55.6684 126.583 55.6684Z" fill="#3D495B"/>
<path d="M133.046 55.8765H131.699V55.6229H132.236C132.576 54.8643 132.918 54.1144 133.262 53.3732C133.606 52.6277 133.948 51.8756 134.288 51.117C134.627 51.8756 134.967 52.6277 135.307 53.3732C135.651 54.1144 135.995 54.8643 136.339 55.6229H136.877V55.8765H135.537V55.6229H136.046C135.916 55.3368 135.786 55.0529 135.656 54.7711C135.53 54.4894 135.402 54.2055 135.272 53.9194H133.304C133.164 54.2315 133.036 54.5154 132.92 54.7711C132.804 55.0269 132.673 55.3108 132.529 55.6229H133.046V55.8765ZM134.218 51.8973C134.092 52.192 133.96 52.4889 133.82 52.788C133.685 53.0828 133.553 53.3754 133.422 53.6658H135.153L134.351 51.8973L134.288 51.7087C134.278 51.7477 134.267 51.7802 134.253 51.8062C134.244 51.8322 134.232 51.8626 134.218 51.8973Z" fill="#3D495B"/>
<path d="M138.96 55.6684C138.89 55.7464 138.8 55.8093 138.688 55.857C138.581 55.9046 138.448 55.9285 138.29 55.9285C138.141 55.9285 137.995 55.9111 137.851 55.8765C137.711 55.8461 137.588 55.7833 137.481 55.6879V55.2133H137.739V55.5449C137.827 55.5969 137.918 55.6316 138.011 55.6489C138.104 55.6619 138.202 55.6684 138.304 55.6684C138.374 55.6684 138.441 55.6597 138.507 55.6424C138.572 55.6207 138.632 55.5904 138.688 55.5514C138.739 55.5124 138.779 55.4668 138.807 55.4148C138.839 55.3585 138.855 55.2913 138.855 55.2133C138.855 55.1006 138.825 55.0139 138.765 54.9532C138.704 54.8925 138.625 54.8448 138.527 54.8101C138.434 54.7711 138.332 54.7365 138.22 54.7061C138.109 54.6758 138.004 54.6389 137.906 54.5956C137.809 54.5522 137.727 54.4915 137.662 54.4135C137.602 54.3312 137.571 54.2185 137.571 54.0754C137.571 53.9584 137.592 53.8587 137.634 53.7763C137.681 53.694 137.741 53.6246 137.816 53.5683C137.89 53.5119 137.976 53.4707 138.074 53.4447C138.172 53.4144 138.262 53.3992 138.346 53.3992C138.407 53.3992 138.465 53.4036 138.521 53.4122C138.576 53.4166 138.641 53.4296 138.716 53.4512C138.776 53.4729 138.835 53.4989 138.89 53.5293C138.946 53.5553 138.997 53.5878 139.044 53.6268V54.1014H138.779V53.7633C138.714 53.7287 138.646 53.7026 138.576 53.6853C138.507 53.668 138.432 53.6593 138.353 53.6593C138.293 53.6593 138.23 53.668 138.165 53.6853C138.104 53.6983 138.051 53.72 138.004 53.7503C137.962 53.785 137.927 53.8283 137.899 53.8804C137.871 53.9324 137.858 53.9952 137.858 54.0689C137.858 54.1643 137.89 54.2401 137.955 54.2965C138.025 54.3485 138.106 54.3919 138.199 54.4265C138.297 54.4655 138.4 54.5024 138.507 54.5371C138.618 54.5674 138.723 54.6086 138.821 54.6606C138.914 54.7126 138.99 54.7798 139.051 54.8622C139.116 54.9445 139.149 55.055 139.149 55.1938C139.149 55.2718 139.132 55.3541 139.1 55.4408C139.072 55.5232 139.025 55.599 138.96 55.6684Z" fill="#3D495B"/>
<path d="M141.209 55.6684C141.139 55.7464 141.049 55.8093 140.937 55.857C140.83 55.9046 140.697 55.9285 140.539 55.9285C140.39 55.9285 140.244 55.9111 140.1 55.8765C139.96 55.8461 139.837 55.7833 139.73 55.6879V55.2133H139.988V55.5449C140.076 55.5969 140.167 55.6316 140.26 55.6489C140.353 55.6619 140.451 55.6684 140.553 55.6684C140.623 55.6684 140.69 55.6597 140.756 55.6424C140.821 55.6207 140.881 55.5904 140.937 55.5514C140.988 55.5124 141.028 55.4668 141.056 55.4148C141.088 55.3585 141.105 55.2913 141.105 55.2133C141.105 55.1006 141.074 55.0139 141.014 54.9532C140.953 54.8925 140.874 54.8448 140.777 54.8101C140.683 54.7711 140.581 54.7365 140.469 54.7061C140.358 54.6758 140.253 54.6389 140.155 54.5956C140.058 54.5522 139.976 54.4915 139.911 54.4135C139.851 54.3312 139.82 54.2185 139.82 54.0754C139.82 53.9584 139.841 53.8587 139.883 53.7763C139.93 53.694 139.99 53.6246 140.065 53.5683C140.139 53.5119 140.225 53.4707 140.323 53.4447C140.421 53.4144 140.511 53.3992 140.595 53.3992C140.656 53.3992 140.714 53.4036 140.77 53.4122C140.825 53.4166 140.89 53.4296 140.965 53.4512C141.025 53.4729 141.084 53.4989 141.139 53.5293C141.195 53.5553 141.246 53.5878 141.293 53.6268V54.1014H141.028V53.7633C140.963 53.7287 140.895 53.7026 140.825 53.6853C140.756 53.668 140.681 53.6593 140.602 53.6593C140.542 53.6593 140.479 53.668 140.414 53.6853C140.353 53.6983 140.3 53.72 140.253 53.7503C140.211 53.785 140.176 53.8283 140.148 53.8804C140.121 53.9324 140.107 53.9952 140.107 54.0689C140.107 54.1643 140.139 54.2401 140.204 54.2965C140.274 54.3485 140.355 54.3919 140.449 54.4265C140.546 54.4655 140.649 54.5024 140.756 54.5371C140.867 54.5674 140.972 54.6086 141.07 54.6606C141.163 54.7126 141.239 54.7798 141.3 54.8622C141.365 54.9445 141.398 55.055 141.398 55.1938C141.398 55.2718 141.381 55.3541 141.349 55.4408C141.321 55.5232 141.274 55.599 141.209 55.6684Z" fill="#3D495B"/>
<path d="M144.253 55.5514C144.127 55.6684 143.978 55.7594 143.806 55.8244C143.639 55.8895 143.46 55.922 143.269 55.922C143.074 55.922 142.892 55.8895 142.725 55.8244C142.562 55.7594 142.42 55.6684 142.299 55.5514C142.173 55.4387 142.076 55.3065 142.006 55.1547C141.936 54.9987 141.901 54.8318 141.901 54.6541C141.901 54.4807 141.936 54.316 142.006 54.1599C142.076 54.0039 142.173 53.8674 142.299 53.7503C142.42 53.6376 142.564 53.5488 142.732 53.4837C142.899 53.4144 143.078 53.3797 143.269 53.3797C143.46 53.3797 143.639 53.4144 143.806 53.4837C143.978 53.5488 144.127 53.6376 144.253 53.7503C144.374 53.8674 144.469 54.0039 144.539 54.1599C144.614 54.316 144.651 54.4807 144.651 54.6541C144.651 54.8318 144.614 54.9965 144.539 55.1482C144.469 55.3 144.374 55.4343 144.253 55.5514ZM142.501 55.3628C142.599 55.4582 142.713 55.5319 142.843 55.5839C142.974 55.6359 143.113 55.6619 143.262 55.6619C143.411 55.6619 143.55 55.6359 143.681 55.5839C143.816 55.5319 143.932 55.4582 144.03 55.3628C144.132 55.2761 144.211 55.1721 144.267 55.0507C144.323 54.9293 144.351 54.7971 144.351 54.6541C144.351 54.5197 144.323 54.3919 144.267 54.2705C144.211 54.1448 144.132 54.0342 144.03 53.9389C143.932 53.8479 143.816 53.7763 143.681 53.7243C143.55 53.6723 143.411 53.6463 143.262 53.6463C143.113 53.6463 142.974 53.6723 142.843 53.7243C142.713 53.7763 142.599 53.8479 142.501 53.9389C142.404 54.0342 142.327 54.1426 142.271 54.264C142.215 54.3853 142.187 54.5154 142.187 54.6541C142.187 54.7971 142.215 54.9293 142.271 55.0507C142.327 55.1721 142.404 55.2761 142.501 55.3628Z" fill="#3D495B"/>
<path d="M147.371 55.6424C147.25 55.7291 147.118 55.7984 146.974 55.8505C146.829 55.8981 146.674 55.922 146.506 55.922C146.315 55.922 146.136 55.8895 145.969 55.8244C145.806 55.7594 145.664 55.6684 145.543 55.5514C145.413 55.4387 145.313 55.3065 145.243 55.1547C145.173 54.9987 145.138 54.8318 145.138 54.6541C145.138 54.4807 145.173 54.316 145.243 54.1599C145.313 54.0039 145.41 53.8695 145.536 53.7568C145.662 53.6441 145.806 53.5553 145.969 53.4902C146.136 53.4209 146.315 53.3862 146.506 53.3862C146.674 53.3862 146.832 53.4122 146.981 53.4642C147.129 53.5119 147.262 53.5791 147.378 53.6658V54.303H147.113V53.8218C147.029 53.7655 146.936 53.7221 146.834 53.6918C146.732 53.6615 146.622 53.6463 146.506 53.6463C146.357 53.6463 146.218 53.6723 146.087 53.7243C145.957 53.772 145.845 53.8392 145.752 53.9259C145.645 54.0212 145.564 54.1318 145.508 54.2575C145.452 54.3788 145.424 54.5111 145.424 54.6541C145.424 54.7971 145.452 54.9315 145.508 55.0572C145.564 55.1786 145.643 55.2848 145.745 55.3758C145.838 55.4625 145.95 55.5319 146.08 55.5839C146.215 55.6359 146.357 55.6619 146.506 55.6619C146.636 55.6619 146.76 55.6424 146.876 55.6034C146.992 55.5644 147.097 55.5102 147.19 55.4408L147.371 55.6424Z" fill="#3D495B"/>
<path d="M149.211 55.8765H147.864V55.6229H148.402V53.6918H147.864V53.4382H148.688V55.6229H149.211V55.8765ZM148.778 52.5735C148.778 52.6342 148.755 52.6862 148.709 52.7295C148.662 52.7685 148.609 52.788 148.548 52.788C148.492 52.788 148.441 52.7685 148.395 52.7295C148.348 52.6862 148.325 52.6342 148.325 52.5735C148.325 52.5128 148.348 52.4629 148.395 52.4239C148.441 52.3806 148.492 52.3589 148.548 52.3589C148.609 52.3589 148.662 52.3806 148.709 52.4239C148.755 52.4629 148.778 52.5128 148.778 52.5735Z" fill="#3D495B"/>
<path d="M152.964 55.8765H152.189V55.6099C152.189 55.5579 152.189 55.5102 152.189 55.4668C152.189 55.4192 152.189 55.3671 152.189 55.3108C152.156 55.3888 152.105 55.4647 152.035 55.5384C151.97 55.6077 151.891 55.6706 151.798 55.7269C151.7 55.7876 151.589 55.8353 151.463 55.87C151.342 55.9046 151.212 55.922 151.072 55.922C150.877 55.922 150.696 55.8895 150.528 55.8244C150.365 55.7594 150.221 55.6684 150.095 55.5514C149.97 55.4343 149.872 55.3 149.802 55.1482C149.732 54.9965 149.698 54.8318 149.698 54.6541C149.698 54.485 149.732 54.3225 149.802 54.1665C149.872 54.0104 149.97 53.8739 150.095 53.7568C150.221 53.6441 150.365 53.5553 150.528 53.4902C150.696 53.4209 150.877 53.3862 151.072 53.3862C151.347 53.3862 151.582 53.4491 151.777 53.5748C151.973 53.6961 152.11 53.8414 152.189 54.0104C152.189 53.9194 152.191 53.8262 152.196 53.7308C152.201 53.6311 152.208 53.5336 152.217 53.4382H152.447V55.6229H152.964V55.8765ZM151.072 53.6463C150.914 53.6463 150.768 53.6723 150.633 53.7243C150.498 53.7763 150.384 53.85 150.291 53.9454C150.193 54.0364 150.116 54.1426 150.06 54.264C150.009 54.3853 149.984 54.5154 149.984 54.6541C149.984 54.8015 150.014 54.938 150.074 55.0637C150.135 55.1894 150.219 55.2978 150.326 55.3888C150.423 55.4755 150.535 55.5427 150.661 55.5904C150.786 55.6381 150.923 55.6619 151.072 55.6619C151.221 55.6619 151.361 55.6381 151.491 55.5904C151.621 55.5384 151.735 55.4668 151.833 55.3758C151.935 55.2848 152.015 55.1786 152.07 55.0572C152.131 54.9315 152.161 54.7971 152.161 54.6541C152.161 54.5111 152.131 54.3788 152.07 54.2575C152.015 54.1318 151.938 54.0234 151.84 53.9324C151.738 53.8414 151.621 53.772 151.491 53.7243C151.361 53.6723 151.221 53.6463 151.072 53.6463Z" fill="#3D495B"/>
<path d="M156.583 55.8765H155.808V55.6099C155.808 55.5579 155.808 55.5102 155.808 55.4668C155.808 55.4192 155.808 55.3671 155.808 55.3108C155.775 55.3888 155.724 55.4647 155.654 55.5384C155.589 55.6077 155.51 55.6706 155.417 55.7269C155.319 55.7876 155.208 55.8353 155.082 55.87C154.961 55.9046 154.831 55.922 154.691 55.922C154.496 55.922 154.314 55.8895 154.147 55.8244C153.984 55.7594 153.84 55.6684 153.714 55.5514C153.589 55.4343 153.491 55.3 153.421 55.1482C153.351 54.9965 153.316 54.8318 153.316 54.6541C153.316 54.4807 153.351 54.316 153.421 54.1599C153.491 54.0039 153.589 53.8695 153.714 53.7568C153.84 53.6441 153.984 53.5553 154.147 53.4902C154.314 53.4209 154.496 53.3862 154.691 53.3862C154.822 53.3862 154.947 53.4036 155.068 53.4382C155.194 53.4729 155.305 53.5184 155.403 53.5748C155.501 53.6355 155.58 53.7005 155.64 53.7698C155.701 53.8392 155.75 53.9107 155.787 53.9844C155.782 53.8674 155.78 53.772 155.78 53.6983C155.78 53.6246 155.78 53.5293 155.78 53.4122V51.2536H155.284V51H156.066V55.6229H156.583V55.8765ZM154.691 53.6463C154.533 53.6463 154.389 53.6723 154.259 53.7243C154.128 53.7763 154.014 53.8479 153.917 53.9389C153.819 54.0299 153.742 54.1383 153.686 54.264C153.63 54.3853 153.603 54.5154 153.603 54.6541C153.603 54.7971 153.63 54.9315 153.686 55.0572C153.747 55.1829 153.828 55.2891 153.931 55.3758C154.028 55.4668 154.14 55.5384 154.266 55.5904C154.396 55.6381 154.538 55.6619 154.691 55.6619C154.84 55.6619 154.977 55.6381 155.103 55.5904C155.233 55.5384 155.35 55.4668 155.452 55.3758C155.554 55.2891 155.633 55.1829 155.689 55.0572C155.75 54.9315 155.78 54.7971 155.78 54.6541C155.78 54.5111 155.75 54.3767 155.689 54.251C155.629 54.1209 155.547 54.0104 155.445 53.9194C155.347 53.8327 155.233 53.7655 155.103 53.7178C154.973 53.6701 154.835 53.6463 154.691 53.6463Z" fill="#3D495B"/>
<path d="M159.328 55.5514C159.203 55.6684 159.054 55.7594 158.882 55.8244C158.714 55.8895 158.535 55.922 158.344 55.922C158.149 55.922 157.967 55.8895 157.8 55.8244C157.637 55.7594 157.495 55.6684 157.374 55.5514C157.249 55.4387 157.151 55.3065 157.081 55.1547C157.011 54.9987 156.976 54.8318 156.976 54.6541C156.976 54.4807 157.011 54.316 157.081 54.1599C157.151 54.0039 157.249 53.8674 157.374 53.7503C157.495 53.6376 157.639 53.5488 157.807 53.4837C157.974 53.4144 158.153 53.3797 158.344 53.3797C158.535 53.3797 158.714 53.4144 158.882 53.4837C159.054 53.5488 159.203 53.6376 159.328 53.7503C159.449 53.8674 159.545 54.0039 159.614 54.1599C159.689 54.316 159.726 54.4807 159.726 54.6541C159.726 54.8318 159.689 54.9965 159.614 55.1482C159.545 55.3 159.449 55.4343 159.328 55.5514ZM157.577 55.3628C157.674 55.4582 157.788 55.5319 157.919 55.5839C158.049 55.6359 158.188 55.6619 158.337 55.6619C158.486 55.6619 158.626 55.6359 158.756 55.5839C158.891 55.5319 159.007 55.4582 159.105 55.3628C159.207 55.2761 159.286 55.1721 159.342 55.0507C159.398 54.9293 159.426 54.7971 159.426 54.6541C159.426 54.5197 159.398 54.3919 159.342 54.2705C159.286 54.1448 159.207 54.0342 159.105 53.9389C159.007 53.8479 158.891 53.7763 158.756 53.7243C158.626 53.6723 158.486 53.6463 158.337 53.6463C158.188 53.6463 158.049 53.6723 157.919 53.7243C157.788 53.7763 157.674 53.8479 157.577 53.9389C157.479 54.0342 157.402 54.1426 157.346 54.264C157.29 54.3853 157.262 54.5154 157.262 54.6541C157.262 54.7971 157.29 54.9293 157.346 55.0507C157.402 55.1721 157.479 55.2761 157.577 55.3628Z" fill="#3D495B"/>
<path d="M161.812 55.6684C161.742 55.7464 161.651 55.8093 161.539 55.857C161.432 55.9046 161.3 55.9285 161.142 55.9285C160.993 55.9285 160.846 55.9111 160.702 55.8765C160.562 55.8461 160.439 55.7833 160.332 55.6879V55.2133H160.59V55.5449C160.679 55.5969 160.769 55.6316 160.862 55.6489C160.956 55.6619 161.053 55.6684 161.156 55.6684C161.225 55.6684 161.293 55.6597 161.358 55.6424C161.423 55.6207 161.484 55.5904 161.539 55.5514C161.591 55.5124 161.63 55.4668 161.658 55.4148C161.691 55.3585 161.707 55.2913 161.707 55.2133C161.707 55.1006 161.677 55.0139 161.616 54.9532C161.556 54.8925 161.477 54.8448 161.379 54.8101C161.286 54.7711 161.183 54.7365 161.072 54.7061C160.96 54.6758 160.855 54.6389 160.758 54.5956C160.66 54.5522 160.579 54.4915 160.514 54.4135C160.453 54.3312 160.423 54.2185 160.423 54.0754C160.423 53.9584 160.444 53.8587 160.486 53.7763C160.532 53.694 160.593 53.6246 160.667 53.5683C160.741 53.5119 160.828 53.4707 160.925 53.4447C161.023 53.4144 161.114 53.3992 161.197 53.3992C161.258 53.3992 161.316 53.4036 161.372 53.4122C161.428 53.4166 161.493 53.4296 161.567 53.4512C161.628 53.4729 161.686 53.4989 161.742 53.5293C161.798 53.5553 161.849 53.5878 161.895 53.6268V54.1014H161.63V53.7633C161.565 53.7287 161.498 53.7026 161.428 53.6853C161.358 53.668 161.284 53.6593 161.204 53.6593C161.144 53.6593 161.081 53.668 161.016 53.6853C160.956 53.6983 160.902 53.72 160.855 53.7503C160.814 53.785 160.779 53.8283 160.751 53.8804C160.723 53.9324 160.709 53.9952 160.709 54.0689C160.709 54.1643 160.741 54.2401 160.807 54.2965C160.876 54.3485 160.958 54.3919 161.051 54.4265C161.149 54.4655 161.251 54.5024 161.358 54.5371C161.47 54.5674 161.574 54.6086 161.672 54.6606C161.765 54.7126 161.842 54.7798 161.902 54.8622C161.967 54.9445 162 55.055 162 55.1938C162 55.2718 161.984 55.3541 161.951 55.4408C161.923 55.5232 161.877 55.599 161.812 55.6684Z" fill="#3D495B"/>
<path d="M74.4359 13.7598C74.5357 13.6927 74.8182 13.6592 75.2835 13.6592C78.3747 13.7933 81.8149 13.8268 85.6041 13.7598L89.3933 13.6592H89.9417L90.0913 13.8101C90.2242 13.9441 90.2907 14.0782 90.2907 14.2123C90.2907 14.7486 90.1245 15.4022 89.7921 16.1732C89.7257 16.3743 89.2437 16.4749 88.3463 16.4749C88.1801 16.4749 87.9806 16.4749 87.748 16.4749C85.7869 16.5084 84.69 16.6425 84.4574 16.8771L84.2579 17.0279L80.8676 30.905C78.5741 40.0894 77.4274 44.7318 77.4274 44.8324C77.3942 44.933 77.5437 45 77.8761 45.0335C78.3082 45.1006 79.1392 45.1508 80.369 45.1844C81.6321 45.1844 82.3301 45.3017 82.463 45.5363C82.4963 45.6369 82.4464 46.0224 82.3135 46.6927C82.1473 47.3296 81.9977 47.7151 81.8648 47.8492L81.7152 48H80.9175C77.095 47.8324 72.7574 47.8156 67.9046 47.9497C66.7745 47.9832 66.1429 47.8827 66.01 47.648C65.9767 47.5475 66.0266 47.162 66.1595 46.4916C66.359 45.8212 66.4919 45.4358 66.5584 45.3352L66.7578 45.1844H68.5029C70.2645 45.1508 71.3115 45.0503 71.6439 44.8827C71.7436 44.8492 71.86 44.7654 71.9929 44.6313L78.8733 16.8268C78.8733 16.7933 78.84 16.743 78.7736 16.676C78.5077 16.5754 77.577 16.5084 75.9815 16.4749C74.6852 16.4749 73.9872 16.3743 73.8875 16.1732C73.821 16.0726 73.8543 15.6872 73.9872 15.0168C74.1534 14.3128 74.303 13.8939 74.4359 13.7598Z" fill="#3D495B"/>
<path d="M96.8435 13.7095C96.91 13.676 100.25 13.6592 106.865 13.6592C113.479 13.6927 117.003 13.743 117.435 13.8101C118.532 13.9777 119.595 14.3128 120.626 14.8156C121.856 15.4525 122.803 16.2737 123.468 17.2793C124.83 19.2905 124.947 21.4525 123.817 23.7654C123.617 24.1676 123.384 24.5531 123.119 24.9218C122.62 25.6927 121.856 26.4804 120.825 27.2849C119.196 28.4916 117.269 29.3799 115.042 29.9497C114.942 29.9832 114.892 30.0168 114.892 30.0503C115.125 30.0503 115.723 30.2011 116.687 30.5028C118.914 31.2067 120.443 32.4302 121.274 34.1732C122.205 36.0838 122.121 38.1788 121.025 40.4581C119.695 43.1732 117.435 45.2514 114.244 46.6927C114.044 46.7933 113.862 46.8771 113.695 46.9441C112.599 47.3799 111.468 47.6816 110.305 47.8492C109.873 47.9162 106.167 47.9665 99.1868 48C92.1735 48 88.6004 47.9497 88.4674 47.8492L88.3677 47.648C88.3345 47.5475 88.3843 47.162 88.5173 46.4916C88.7167 45.8212 88.8497 45.4358 88.9161 45.3352L89.1156 45.1844H90.8107C92.6721 45.1508 93.7191 45.0168 93.9518 44.7821C94.0515 44.7151 95.2481 40.0559 97.5415 30.8045C99.835 21.5531 100.982 16.8939 100.982 16.8268C100.982 16.7933 100.948 16.743 100.882 16.676C100.749 16.6089 99.8516 16.5419 98.1897 16.4749H96.4945L96.3449 16.324C96.1455 16.1899 96.1455 15.7207 96.3449 14.9162C96.5111 14.2123 96.6773 13.8101 96.8435 13.7095ZM115.49 16.5251C115.291 16.4916 113.845 16.4749 111.153 16.4749L106.815 16.5251C106.483 16.5587 106.267 16.6592 106.167 16.8268C106.167 16.8939 105.652 18.9218 104.621 22.9106L103.126 28.9441H107.214L111.352 28.8939L111.851 28.7933C113.878 28.2905 115.524 27.2514 116.787 25.676C117.451 24.9385 117.983 24.0335 118.382 22.9609C118.582 22.2235 118.681 21.486 118.681 20.7486C118.681 20.1788 118.648 19.7598 118.582 19.4916C118.382 18.7542 118.033 18.1341 117.535 17.6313C117.003 17.095 116.321 16.7263 115.49 16.5251ZM112.798 31.4581L112.399 31.3575L107.463 31.3073H102.577L100.882 38.095C99.7519 42.5866 99.1868 44.8827 99.1868 44.9832C99.1868 45.0503 99.2533 45.1006 99.3863 45.1341H104.023C107.015 45.1341 108.676 45.1006 109.009 45.0335C111.369 44.4972 113.23 43.2067 114.593 41.162C115.457 39.8547 115.939 38.3967 116.039 36.7877C116.072 35.0782 115.64 33.6872 114.742 32.6145C114.144 32.0112 113.496 31.6257 112.798 31.4581Z" fill="#3D495B"/>
<path d="M151.078 12.0503L152.225 12H152.275C153.172 12 153.654 12.1006 153.721 12.3017C153.754 12.4358 154.203 17.8659 155.067 28.5922C155.898 39.3855 156.347 44.8156 156.413 44.8827C156.446 44.9162 156.563 44.9665 156.762 45.0335C157.161 45.1341 158.125 45.1844 159.654 45.1844H160.651L160.85 45.3352C160.95 45.5028 161 45.6201 161 45.6872L160.551 47.6983C160.452 47.8994 160.086 47.9832 159.454 47.9497C159.321 47.9497 159.072 47.9497 158.707 47.9497C153.887 47.8156 149.948 47.8324 146.89 48H146.292L146.142 47.8492C146.009 47.7151 145.943 47.581 145.943 47.4469C145.943 46.9106 146.109 46.257 146.442 45.486C146.508 45.2849 146.99 45.1844 147.887 45.1844C148.685 45.1173 149.217 45.0838 149.483 45.0838C150.247 44.9497 150.663 44.8156 150.729 44.6816C150.763 44.648 150.696 43.5419 150.53 41.3631C150.364 39.419 150.281 38.3129 150.281 38.0447C150.281 37.9777 148.386 37.9441 144.597 37.9441H138.863L137.367 40.6089C136.304 42.419 135.755 43.4078 135.722 43.5754C135.589 43.9106 135.639 44.1955 135.872 44.4302C136.204 44.8324 136.919 45.0838 138.016 45.1844C138.481 45.1844 138.78 45.3017 138.913 45.5363L138.963 45.6872L138.714 46.6927C138.581 47.3296 138.448 47.7151 138.315 47.8492L138.165 48H137.567C134.808 47.8659 132.199 47.8324 129.739 47.8994C128.044 47.9665 127.18 48 127.147 48H126.798L126.648 47.8492C126.515 47.7151 126.449 47.5978 126.449 47.4972L126.897 45.486C127.03 45.2849 127.412 45.1844 128.044 45.1844C130.371 45.0838 131.983 44.4134 132.88 43.1732L141.904 27.5866C147.688 17.4972 150.646 12.3855 150.779 12.2514C150.812 12.2179 150.912 12.1508 151.078 12.0503ZM149.483 27.8883C149.117 23.095 148.934 20.6648 148.934 20.5978C148.934 20.4637 148.203 21.6872 146.741 24.2682L142.553 31.5587L140.508 35.0782L145.245 35.1285H150.031C150.031 35.162 149.848 32.7486 149.483 27.8883Z" fill="#3D495B"/>
<defs>
<linearGradient id="paint0_linear_165_191" x1="84" y1="0" x2="84" y2="68" gradientUnits="userSpaceOnUse">
<stop stop-color="#DEECFF"/>
<stop offset="1" stop-color="#FFFEFC"/>
</linearGradient>
</defs>
</svg>
